<svg width="24" height="24" viewBox="0 0 24 24" fill="none" xmlns="http://www.w3.org/2000/svg">
<path fill-rule="evenodd" clip-rule="evenodd" d="M4.00098 12C4.00098 9.87827 4.84383 7.84344 6.34412 6.34315C7.84441 4.84285 9.87925 4 12.001 4C14.1227 4 16.1575 4.84285 17.6578 6.34315C19.1581 7.84344 20.001 9.87827 20.001 12C20.001 14.1217 19.1581 16.1566 17.6578 17.6569C16.1575 19.1571 14.1227 20 12.001 20C9.87925 20 7.84441 19.1571 6.34412 17.6569C4.84383 16.1566 4.00098 14.1217 4.00098 12ZM14.3844 18.7505C15.2552 18.4412 16.0583 17.9671 16.7498 17.3542C16.3949 17.1075 16.0204 16.8902 15.6301 16.7043C15.5019 17.0075 15.363 17.2939 15.2133 17.5635C14.9698 18.004 14.6913 18.4057 14.3844 18.7505ZM15.9257 15.9124C16.4119 16.1397 16.8689 16.4053 17.2964 16.7091C17.3154 16.723 17.3334 16.7381 17.3504 16.7545C18.4203 15.5536 19.0529 14.0263 19.1456 12.4206H16.5187C16.4874 13.6068 16.2883 14.7825 15.9257 15.9124ZM15.6765 12.4206C15.6449 13.4969 15.4655 14.5638 15.1432 15.5912C14.2674 15.2791 13.3496 15.1002 12.4206 15.0607V12.4206H15.6765ZM16.5196 11.5784H19.1437C19.0511 9.97318 18.4188 8.4463 17.3495 7.24547C17.332 7.26129 17.314 7.27646 17.2955 7.29094C16.8634 7.59683 16.4046 7.86316 15.9247 8.08668C16.2657 9.13061 16.4798 10.3185 16.5187 11.5794M15.1432 8.40971C15.4444 9.34944 15.6377 10.4275 15.6765 11.5803H12.4206V8.93831C13.3496 8.89881 14.2674 8.71999 15.1432 8.40782M15.6292 7.29473C16.0194 7.10889 16.3939 6.89155 16.7489 6.64488C16.0573 6.03194 15.2542 5.55787 14.3835 5.24855C14.6904 5.59337 14.9689 5.99503 15.2133 6.43552C15.3623 6.70456 15.5003 6.99096 15.6292 7.29473ZM9.61471 5.24855C8.74427 5.55798 7.94151 6.03205 7.25024 6.64488C7.60137 6.88865 7.97461 7.10527 8.36995 7.29473C8.49273 7.00077 8.63189 6.71391 8.78677 6.43552C9.03117 5.99503 9.30779 5.59337 9.61471 5.24855ZM8.07534 8.08763C7.59541 7.8638 7.13663 7.59716 6.70459 7.29094C6.68603 7.27646 6.66802 7.26129 6.65059 7.24547C5.58072 8.44642 4.94811 9.97368 4.85545 11.5794H7.48138C7.52022 10.3185 7.73431 9.13061 8.07534 8.08763ZM8.32354 11.5794C8.36143 10.4256 8.55562 9.34849 8.85687 8.40876C9.70755 8.7119 10.6245 8.89663 11.5804 8.93925V11.5794H8.32354ZM7.48138 12.4206H4.8545C4.94717 14.0263 5.57977 15.5536 6.64964 16.7545C6.66707 16.7387 6.68508 16.7235 6.70364 16.7091C7.13119 16.4053 7.58811 16.1397 8.07439 15.9124C7.71173 14.7825 7.51269 13.6068 7.48138 12.4206ZM8.85592 15.5912C8.53366 14.5638 8.3542 13.4969 8.32259 12.4206H11.5794V15.0617C10.6501 15.1011 9.73205 15.279 8.85592 15.5912ZM8.36995 16.7053C8.49816 17.0084 8.63709 17.2948 8.78677 17.5645C9.03117 18.005 9.30873 18.4066 9.61566 18.7515C8.74488 18.4421 7.94179 17.9681 7.25024 17.3551C7.60137 17.1101 7.97461 16.8935 8.36995 16.7053ZM9.14674 16.3832C9.93005 16.1064 10.7496 15.9455 11.5794 15.9057V19.102C10.8727 18.9125 10.1348 18.2589 9.52188 17.1552C9.38264 16.9049 9.25771 16.6468 9.14769 16.3822M12.4225 15.9048C13.2517 15.9444 14.0706 16.105 14.8533 16.3813C14.7377 16.656 14.613 16.9137 14.4791 17.1543C13.8662 18.2579 13.1283 18.9125 12.4225 19.101V15.9048ZM11.5794 8.0952C10.7503 8.05555 9.93138 7.89503 9.14864 7.61871C9.25866 7.35418 9.38358 7.09609 9.52282 6.84571C10.1357 5.7421 10.8737 5.08751 11.5804 4.89899L11.5794 8.0952ZM12.4225 8.0952C13.2517 8.05555 14.0706 7.89503 14.8533 7.61871C14.7433 7.35418 14.6184 7.09609 14.4791 6.84571C13.8662 5.7421 13.1283 5.08751 12.4225 4.89899V8.0952Z" fill="black"/>
</svg>
